<svg xmlns="http://www.w3.org/2000/svg" style="display: none;">
  <!-- Иконка ВК -->
  <symbol id="icon-vk" viewBox="0 0 9 9">
    <path d="M4.818 6.757C2.382 6.757.992 5.063.934 2.243h1.22c.04 2.07.94 2.946 1.653 3.127V2.243h1.15v1.785c.703-.077 1.443-.89 1.692-1.785H7.8c-.192 1.102-.994 1.916-1.564 2.25.57.271 1.483.98 1.83 2.264H6.802c-.272-.858-.95-1.523-1.844-1.613v1.613z" 
          fill="none" 
          stroke="currentColor" 
          stroke-width="0.375" 
          stroke-linecap="round" 
          stroke-linejoin="round"/>
  </symbol>

  <!-- Telegram -->
  <symbol id="icon-tg" viewBox="0 0 192 192">
    <path d="M144.89 31.212c12.573-4.107 20.025 2.553 16.026 15.044-10.038 31.391-29.749 88.653-42.277 124.81-3.281 9.457-18.463 9.087-22.275-.171-6.54-15.873-16.168-34.351-29.308-47.819-12.565-12.876-30.16-22.185-45.783-28.55-9.515-3.877-9.852-19.706-.075-22.895L144.89 31.21Z" 
          fill="none" 
          stroke="currentColor" 
          stroke-width="12"/>
  </symbol>

  <!-- Rutube -->
  <symbol id="icon-rutube" viewBox="0 0 192 192">
    <g transform="translate(1.605 -1.99)">
      <path d="M128.689 47.57H20.396v116.843h30.141V126.4h57.756l26.352 38.013h33.75l-29.058-38.188c9.025-1.401 15.522-4.73 19.493-9.985 3.97-5.255 5.956-13.664 5.956-24.875v-8.759c0-6.657-.721-11.912-1.985-15.941-1.264-4.029-3.43-7.533-6.498-10.686-3.249-2.978-6.858-5.08-11.19-6.481-4.332-1.226-9.747-1.927-16.424-1.927zm-4.873 53.08H50.537V73.321h73.279c4.15 0 7.038.7 8.482 1.927 1.444 1.226 2.347 3.503 2.347 6.832v9.81c0 3.503-.903 5.78-2.347 7.006s-4.331 1.752-8.482 1.752z" 
            fill="none" 
            stroke="currentColor" 
            stroke-width="12" 
            stroke-linecap="round" 
            stroke-linejoin="round"/>
      <circle cx="162.324" cy="45.568" r="10" 
              fill="currentColor" 
              stroke="none"/>
    </g>
  </symbol>
</svg>