<svg width="442" height="154" viewBox="0 0 442 154" fill="none" xmlns="http://www.w3.org/2000/svg">
<path d="M5.09009 2.54498C5.09009 3.95098 3.95104 5.09003 2.54504 5.09003C1.13904 5.09003 0 3.95098 0 2.54498C0 1.13998 1.14004 0 2.54504 0C3.95004 0 5.09009 1.13898 5.09009 2.54498Z" fill="white"/>
<path d="M67.41 2.54498C67.41 3.95098 66.271 5.09003 64.865 5.09003C63.459 5.09003 62.3201 3.95098 62.3201 2.54498C62.3201 1.13998 63.459 0 64.865 0C66.271 0 67.41 1.13898 67.41 2.54498Z" fill="white"/>
<path d="M129.731 2.54498C129.731 3.95098 128.591 5.09003 127.186 5.09003C125.781 5.09003 124.641 3.95098 124.641 2.54498C124.641 1.13998 125.781 0 127.186 0C128.591 0 129.731 1.13898 129.731 2.54498Z" fill="white"/>
<path d="M192.051 2.54498C192.051 3.95098 190.911 5.09003 189.506 5.09003C188.1 5.09003 186.961 3.95098 186.961 2.54498C186.961 1.13998 188.101 0 189.506 0C190.911 0 192.051 1.13898 192.051 2.54498Z" fill="white"/>
<path d="M254.371 2.54498C254.371 3.95098 253.232 5.09003 251.826 5.09003C250.42 5.09003 249.281 3.95098 249.281 2.54498C249.281 1.13998 250.42 0 251.826 0C253.232 0 254.371 1.13898 254.371 2.54498Z" fill="white"/>
<path d="M316.691 2.54498C316.691 3.95098 315.552 5.09003 314.146 5.09003C312.74 5.09003 311.601 3.95098 311.601 2.54498C311.601 1.13998 312.74 0 314.146 0C315.552 0 316.691 1.13898 316.691 2.54498Z" fill="white"/>
<path d="M379.012 2.54498C379.012 3.95098 377.873 5.09003 376.467 5.09003C375.062 5.09003 373.922 3.95098 373.922 2.54498C373.922 1.13998 375.062 0 376.467 0C377.873 0 379.012 1.13898 379.012 2.54498Z" fill="white"/>
<path d="M441.332 2.54498C441.332 3.95098 440.193 5.09003 438.787 5.09003C437.381 5.09003 436.242 3.95098 436.242 2.54498C436.242 1.13998 437.382 0 438.787 0C440.193 0 441.332 1.13898 441.332 2.54498Z" fill="white"/>
<path d="M5.09009 76.8591C5.09009 78.2651 3.95104 79.4041 2.54504 79.4041C1.13904 79.4041 0 78.2641 0 76.8591C0 75.4541 1.14004 74.3141 2.54504 74.3141C3.95004 74.3141 5.09009 75.4541 5.09009 76.8591Z" fill="white"/>
<path d="M67.41 76.8591C67.41 78.2651 66.271 79.4041 64.865 79.4041C63.459 79.4041 62.3201 78.2641 62.3201 76.8591C62.3201 75.4541 63.459 74.3141 64.865 74.3141C66.271 74.3141 67.41 75.4541 67.41 76.8591Z" fill="white"/>
<path d="M129.731 76.8591C129.731 78.2651 128.591 79.4041 127.186 79.4041C125.781 79.4041 124.641 78.2641 124.641 76.8591C124.641 75.4541 125.781 74.3141 127.186 74.3141C128.591 74.3141 129.731 75.4541 129.731 76.8591Z" fill="white"/>
<path d="M192.051 76.8591C192.051 78.2651 190.911 79.4041 189.506 79.4041C188.1 79.4041 186.961 78.2641 186.961 76.8591C186.961 75.4541 188.101 74.3141 189.506 74.3141C190.911 74.3141 192.051 75.4541 192.051 76.8591Z" fill="white"/>
<path d="M254.371 76.8591C254.371 78.2651 253.232 79.4041 251.826 79.4041C250.42 79.4041 249.281 78.2641 249.281 76.8591C249.281 75.4541 250.42 74.3141 251.826 74.3141C253.232 74.3141 254.371 75.4541 254.371 76.8591Z" fill="white"/>
<path d="M316.691 76.8591C316.691 78.2651 315.552 79.4041 314.146 79.4041C312.74 79.4041 311.601 78.2641 311.601 76.8591C311.601 75.4541 312.74 74.3141 314.146 74.3141C315.552 74.3141 316.691 75.4541 316.691 76.8591Z" fill="white"/>
<path d="M379.012 76.8591C379.012 78.2651 377.873 79.4041 376.467 79.4041C375.062 79.4041 373.922 78.2641 373.922 76.8591C373.922 75.4541 375.062 74.3141 376.467 74.3141C377.873 74.3141 379.012 75.4541 379.012 76.8591Z" fill="white"/>
<path d="M441.332 76.8591C441.332 78.2651 440.193 79.4041 438.787 79.4041C437.381 79.4041 436.242 78.2641 436.242 76.8591C436.242 75.4541 437.382 74.3141 438.787 74.3141C440.193 74.3141 441.332 75.4541 441.332 76.8591Z" fill="white"/>
<path d="M5.09009 151.174C5.09009 152.58 3.95104 153.719 2.54504 153.719C1.13904 153.719 0 152.579 0 151.174C0 149.769 1.14004 148.629 2.54504 148.629C3.95004 148.629 5.09009 149.768 5.09009 151.174Z" fill="white"/>
<path d="M67.41 151.174C67.41 152.58 66.271 153.719 64.865 153.719C63.459 153.719 62.3201 152.579 62.3201 151.174C62.3201 149.769 63.459 148.629 64.865 148.629C66.271 148.629 67.41 149.768 67.41 151.174Z" fill="white"/>
<path d="M129.731 151.174C129.731 152.58 128.591 153.719 127.186 153.719C125.781 153.719 124.641 152.579 124.641 151.174C124.641 149.769 125.781 148.629 127.186 148.629C128.591 148.629 129.731 149.768 129.731 151.174Z" fill="white"/>
<path d="M192.051 151.174C192.051 152.58 190.911 153.719 189.506 153.719C188.1 153.719 186.961 152.579 186.961 151.174C186.961 149.769 188.101 148.629 189.506 148.629C190.911 148.629 192.051 149.768 192.051 151.174Z" fill="white"/>
<path d="M254.371 151.174C254.371 152.58 253.232 153.719 251.826 153.719C250.42 153.719 249.281 152.579 249.281 151.174C249.281 149.769 250.42 148.629 251.826 148.629C253.232 148.629 254.371 149.768 254.371 151.174Z" fill="white"/>
<path d="M316.691 151.174C316.691 152.58 315.552 153.719 314.146 153.719C312.74 153.719 311.601 152.579 311.601 151.174C311.601 149.769 312.74 148.629 314.146 148.629C315.552 148.629 316.691 149.768 316.691 151.174Z" fill="white"/>
<path d="M379.012 151.174C379.012 152.58 377.873 153.719 376.467 153.719C375.062 153.719 373.922 152.579 373.922 151.174C373.922 149.769 375.062 148.629 376.467 148.629C377.873 148.629 379.012 149.768 379.012 151.174Z" fill="white"/>
<path d="M441.332 151.174C441.332 152.58 440.193 153.719 438.787 153.719C437.381 153.719 436.242 152.579 436.242 151.174C436.242 149.769 437.382 148.629 438.787 148.629C440.193 148.629 441.332 149.768 441.332 151.174Z" fill="white"/>
</svg>
