<svg width="149" height="426" viewBox="0 0 149 426" fill="none" xmlns="http://www.w3.org/2000/svg">
<path d="M2.45496 420.754C3.81096 420.754 4.90997 421.853 4.90997 423.209C4.90997 424.565 3.81096 425.664 2.45496 425.664C1.09896 425.664 0 424.565 0 423.209C0.001 421.853 1.09996 420.754 2.45496 420.754Z" fill="white"/>
<path d="M2.45496 360.646C3.81096 360.646 4.90997 361.745 4.90997 363.101C4.90997 364.457 3.81096 365.556 2.45496 365.556C1.09896 365.556 0 364.457 0 363.101C0.001 361.745 1.09996 360.646 2.45496 360.646Z" fill="white"/>
<path d="M2.45496 300.538C3.81096 300.538 4.90997 301.637 4.90997 302.993C4.90997 304.349 3.81096 305.448 2.45496 305.448C1.09896 305.448 0 304.349 0 302.993C0.001 301.637 1.09996 300.538 2.45496 300.538Z" fill="white"/>
<path d="M2.45496 240.431C3.81096 240.431 4.90997 241.53 4.90997 242.886C4.90997 244.242 3.81096 245.34 2.45496 245.34C1.09896 245.34 0 244.241 0 242.886C0.001 241.529 1.09996 240.431 2.45496 240.431Z" fill="white"/>
<path d="M2.45496 180.323C3.81096 180.323 4.90997 181.422 4.90997 182.778C4.90997 184.133 3.81096 185.232 2.45496 185.232C1.09896 185.232 0 184.133 0 182.778C0.001 181.422 1.09996 180.323 2.45496 180.323Z" fill="white"/>
<path d="M2.45496 120.215C3.81096 120.215 4.90997 121.314 4.90997 122.67C4.90997 124.026 3.81096 125.125 2.45496 125.125C1.09896 125.125 0 124.026 0 122.67C0.001 121.314 1.09996 120.215 2.45496 120.215Z" fill="white"/>
<path d="M2.45496 60.108C3.81096 60.108 4.90997 61.207 4.90997 62.562C4.90997 63.918 3.81096 65.017 2.45496 65.017C1.09896 65.017 0 63.918 0 62.562C0.001 61.207 1.09996 60.108 2.45496 60.108Z" fill="white"/>
<path d="M2.45496 0C3.81096 0 4.90997 1.09901 4.90997 2.45401C4.90997 3.80901 3.81096 4.90802 2.45496 4.90802C1.09896 4.90802 0 3.80901 0 2.45401C0 1.09901 1.09996 0 2.45496 0Z" fill="white"/>
<path d="M74.131 420.754C75.487 420.754 76.586 421.853 76.586 423.209C76.586 424.565 75.487 425.664 74.131 425.664C72.775 425.664 71.676 424.565 71.676 423.209C71.677 421.853 72.776 420.754 74.131 420.754Z" fill="white"/>
<path d="M74.131 360.646C75.487 360.646 76.586 361.745 76.586 363.101C76.586 364.457 75.487 365.556 74.131 365.556C72.775 365.556 71.676 364.457 71.676 363.101C71.677 361.745 72.776 360.646 74.131 360.646Z" fill="white"/>
<path d="M74.131 300.538C75.487 300.538 76.586 301.637 76.586 302.993C76.586 304.349 75.487 305.448 74.131 305.448C72.775 305.448 71.676 304.349 71.676 302.993C71.677 301.637 72.776 300.538 74.131 300.538Z" fill="white"/>
<path d="M74.131 240.431C75.487 240.431 76.586 241.53 76.586 242.886C76.586 244.242 75.487 245.34 74.131 245.34C72.775 245.34 71.676 244.241 71.676 242.886C71.677 241.529 72.776 240.431 74.131 240.431Z" fill="white"/>
<path d="M74.131 180.323C75.487 180.323 76.586 181.422 76.586 182.778C76.586 184.133 75.487 185.232 74.131 185.232C72.775 185.232 71.676 184.133 71.676 182.778C71.677 181.422 72.776 180.323 74.131 180.323Z" fill="white"/>
<path d="M74.131 120.215C75.487 120.215 76.586 121.314 76.586 122.67C76.586 124.026 75.487 125.125 74.131 125.125C72.775 125.125 71.676 124.026 71.676 122.67C71.677 121.314 72.776 120.215 74.131 120.215Z" fill="white"/>
<path d="M74.131 60.108C75.487 60.108 76.586 61.207 76.586 62.562C76.586 63.918 75.487 65.017 74.131 65.017C72.775 65.017 71.676 63.918 71.676 62.562C71.677 61.207 72.776 60.108 74.131 60.108Z" fill="white"/>
<path d="M74.131 0C75.487 0 76.586 1.09901 76.586 2.45401C76.586 3.80901 75.487 4.90802 74.131 4.90802C72.775 4.90802 71.676 3.80901 71.676 2.45401C71.676 1.09901 72.776 0 74.131 0Z" fill="white"/>
<path d="M145.807 420.754C147.162 420.754 148.262 421.853 148.262 423.209C148.262 424.565 147.163 425.664 145.807 425.664C144.451 425.664 143.352 424.565 143.352 423.209C143.353 421.853 144.452 420.754 145.807 420.754Z" fill="white"/>
<path d="M145.807 360.646C147.162 360.646 148.262 361.745 148.262 363.101C148.262 364.457 147.163 365.556 145.807 365.556C144.451 365.556 143.352 364.457 143.352 363.101C143.353 361.745 144.452 360.646 145.807 360.646Z" fill="white"/>
<path d="M145.807 300.538C147.162 300.538 148.262 301.637 148.262 302.993C148.262 304.349 147.163 305.448 145.807 305.448C144.451 305.448 143.352 304.349 143.352 302.993C143.353 301.637 144.452 300.538 145.807 300.538Z" fill="white"/>
<path d="M145.807 240.431C147.162 240.431 148.262 241.53 148.262 242.886C148.262 244.242 147.163 245.34 145.807 245.34C144.451 245.34 143.352 244.241 143.352 242.886C143.353 241.529 144.452 240.431 145.807 240.431Z" fill="white"/>
<path d="M145.807 180.323C147.162 180.323 148.262 181.422 148.262 182.778C148.262 184.133 147.163 185.232 145.807 185.232C144.451 185.232 143.352 184.133 143.352 182.778C143.353 181.422 144.452 180.323 145.807 180.323Z" fill="white"/>
<path d="M145.807 120.215C147.162 120.215 148.262 121.314 148.262 122.67C148.262 124.026 147.163 125.125 145.807 125.125C144.451 125.125 143.352 124.026 143.352 122.67C143.353 121.314 144.452 120.215 145.807 120.215Z" fill="white"/>
<path d="M145.807 60.108C147.162 60.108 148.262 61.207 148.262 62.562C148.262 63.918 147.163 65.017 145.807 65.017C144.451 65.017 143.352 63.918 143.352 62.562C143.353 61.207 144.452 60.108 145.807 60.108Z" fill="white"/>
<path d="M145.807 0C147.162 0 148.262 1.09901 148.262 2.45401C148.262 3.80901 147.163 4.90802 145.807 4.90802C144.451 4.90802 143.352 3.80901 143.352 2.45401C143.352 1.09901 144.452 0 145.807 0Z" fill="white"/>
</svg>
